<svg xmlns="http://www.w3.org/2000/svg" width="317.09" height="40.593" viewBox="0 0 317.09 40.593">
  <path id="Path_1" data-name="Path 1" d="M3.5,0V-19.95q0-6.15,1-7.9A23.124,23.124,0,0,1,8.775-32.6q3.275-3,4.875-3a12.134,12.134,0,0,1,5.45,1.75,14.152,14.152,0,0,1,4.85,3.95L18.4-26.05q-2.8-2.8-4.5-2.8a2.356,2.356,0,0,0-1.5.825,9.244,9.244,0,0,0-1.425,1.75Q10.4-25.35,10.4-21.6v1.15h8.95v6.05H10.4V0ZM33.475-5.9a2.141,2.141,0,0,0,1.225.75,2.141,2.141,0,0,0,1.225-.75A6.648,6.648,0,0,0,37.05-7.25q.65-1.1.65-6.2t-.65-6.25a6.648,6.648,0,0,0-1.125-1.35A2.141,2.141,0,0,0,34.7-21.8a2.141,2.141,0,0,0-1.225.75A6.648,6.648,0,0,0,32.35-19.7q-.65,1.1-.65,6.2t.65,6.25A6.648,6.648,0,0,0,33.475-5.9Zm5.75,4.05Q36.15.6,34.7.6T30.175-1.85A17.33,17.33,0,0,1,26.4-5.5q-1.05-1.85-1.05-8t1.05-7.95a17.331,17.331,0,0,1,3.775-3.65q3.075-2.45,4.525-2.45t4.525,2.45A17.33,17.33,0,0,1,43-21.45q1.05,1.8,1.05,7.95T43-5.5A17.33,17.33,0,0,1,39.225-1.85ZM55.175-5.9a2.141,2.141,0,0,0,1.225.75,2.141,2.141,0,0,0,1.225-.75A6.648,6.648,0,0,0,58.75-7.25q.65-1.1.65-6.2t-.65-6.25a6.648,6.648,0,0,0-1.125-1.35A2.141,2.141,0,0,0,56.4-21.8a2.141,2.141,0,0,0-1.225.75A6.648,6.648,0,0,0,54.05-19.7q-.65,1.1-.65,6.2t.65,6.25A6.648,6.648,0,0,0,55.175-5.9Zm5.75,4.05Q57.85.6,56.4.6T51.875-1.85A17.331,17.331,0,0,1,48.1-5.5q-1.05-1.85-1.05-8t1.05-7.95a17.331,17.331,0,0,1,3.775-3.65q3.075-2.45,4.525-2.45t4.525,2.45A17.331,17.331,0,0,1,64.7-21.45q1.05,1.8,1.05,7.95t-1.05,8A17.331,17.331,0,0,1,60.925-1.85ZM69.3-20.95q.4-1.25,3.125-3.925T76.45-27.55q1.3,0,4.45,2.7V-27.3a9.946,9.946,0,0,0-.6-3.9,6.883,6.883,0,0,0-1.9-2.45l5.5-3.85a9.677,9.677,0,0,1,3.6,8.05V0H82.4l-.6-2.95Q78.15.6,76.35.6q-1.2,0-3.925-2.675T69.3-6q-.55-1.25-.55-7.475T69.3-20.95Zm11.25,1.625a4.088,4.088,0,0,0-1.425-1.3A3.563,3.563,0,0,0,77.5-21.3a1.728,1.728,0,0,0-1.175.65A4.547,4.547,0,0,0,75.4-19.3a27.755,27.755,0,0,0-.3,5.825q0,5.125.3,5.8a5.013,5.013,0,0,0,.925,1.35,1.7,1.7,0,0,0,1.15.675,3.569,3.569,0,0,0,1.6-.675A5.1,5.1,0,0,0,80.5-7.5a16.23,16.23,0,0,0,.4-4.05V-13.4Q80.9-18.7,80.55-19.325ZM122.9-14.1a7.725,7.725,0,0,1,.55,3.575A8.71,8.71,0,0,1,122.35-6a22.565,22.565,0,0,1-4.25,4.025Q114.85.6,113.3.6q-2.75,0-6.3-2.875A12.542,12.542,0,0,1,102.5-8.6l5.55-3.8a12.363,12.363,0,0,0,2.55,4.3q1.75,1.95,2.475,1.95a3.13,3.13,0,0,0,1.55-.475A5.192,5.192,0,0,0,115.9-7.6a3.937,3.937,0,0,0,.65-2.5q0-1.7-.8-2.1a20.647,20.647,0,0,0-3.875-2.25,46.27,46.27,0,0,1-5.325-3.025,8.169,8.169,0,0,1-3.125-3.175,10.179,10.179,0,0,1-.675-4.025A8.3,8.3,0,0,1,103.85-29a22.565,22.565,0,0,1,4.25-4.025q3.25-2.575,4.8-2.575,2.75,0,6.3,2.875a12.542,12.542,0,0,1,4.5,6.325l-5.55,3.85a12.617,12.617,0,0,0-2.55-4.325q-1.75-1.975-2.475-1.975a3.4,3.4,0,0,0-1.575.45,4.2,4.2,0,0,0-1.375,1.125,3.83,3.83,0,0,0-.525,2.3,2.256,2.256,0,0,0,1,2.175,22.818,22.818,0,0,0,3.65,2.2Q121.6-16.6,122.9-14.1Zm22,.55v1.8H132.8A12.309,12.309,0,0,0,133.55-7a3.769,3.769,0,0,0,.9,1.225,1.946,1.946,0,0,0,1.35.625q.7,0,1.75-1.2a8.79,8.79,0,0,0,1.65-2.9l5.15,3.65a12.3,12.3,0,0,1-4.125,4.35A8.92,8.92,0,0,1,135.75.6q-1.7,0-4.925-2.65T126.9-6.175q-.7-1.475-.7-7.3t.7-7.3q.7-1.475,3.925-4.125t4.725-2.65q1.5,0,4.725,2.65t3.925,4.125Q144.9-19.3,144.9-13.55Zm-6.925-6.275a4.85,4.85,0,0,0-1.15-1.325,2.328,2.328,0,0,0-1.45-.65q-.675,0-1.525,1.325A8.706,8.706,0,0,0,132.8-16.5h5.7A9.9,9.9,0,0,0,137.975-19.825ZM167.4-26.95v20.5a4.791,4.791,0,0,0,2.35,3.1L165.25.5a8.867,8.867,0,0,1-1.6-1.6,14.663,14.663,0,0,1-1.6-2.35Q157.9.6,156.25.6q-1.2,0-3.875-2.65a14.531,14.531,0,0,1-3.325-4.3q-.65-1.65-.65-7.125t.65-7.125a14.531,14.531,0,0,1,3.325-4.3q2.675-2.65,3.875-2.65,1.75,0,5.65,3.6l.6-3Zm-6.95,7.625a4.088,4.088,0,0,0-1.425-1.3A3.563,3.563,0,0,0,157.4-21.3a1.728,1.728,0,0,0-1.175.65,3.6,3.6,0,0,0-.825,1.2q-.65.9-.65,5.975T155.4-7.5a4.124,4.124,0,0,0,.825,1.175,1.71,1.71,0,0,0,1.175.675,3.563,3.563,0,0,0,1.625-.675,4.25,4.25,0,0,0,1.4-1.225q.325-.55.375-5.85Q160.8-18.7,160.45-19.325ZM180.35,0h-6.6V-17.25a10.16,10.16,0,0,0-.625-3.975A6.742,6.742,0,0,0,171.25-23.7l5.5-3.85a10.257,10.257,0,0,1,2.75,3.5q3.7-3.5,5.2-3.5,1,0,3.05,1.85a6.935,6.935,0,0,1,2.4,4.05L184.8-17.8a6.242,6.242,0,0,0-.575-2.35q-.525-1.15-.925-1.15-.85,0-2.95,2.1ZM192.2-5.5q-1.05-1.65-1.05-7.95t1.05-8a18.077,18.077,0,0,1,3.7-3.675q2.95-2.425,4.575-2.425t4.4,1.925a13.614,13.614,0,0,1,4.175,4.375L203.9-17.7a19.83,19.83,0,0,0-1.775-2.65Q201-21.8,200.45-21.8q-1,0-2.3,2.1-.65,1.3-.65,6.225t.65,6.225a9.753,9.753,0,0,0,1.05,1.375,1.806,1.806,0,0,0,1.3.725q.65,0,1.7-1.15a8.7,8.7,0,0,0,1.7-2.95l5.15,3.6a12.5,12.5,0,0,1-4.125,4.375Q202.15.6,200.5.6t-4.6-2.425A18.077,18.077,0,0,1,192.2-5.5ZM219.45,0h-6.6V-27.3a9.946,9.946,0,0,0-.6-3.9,6.883,6.883,0,0,0-1.9-2.45l5.5-3.85a9.677,9.677,0,0,1,3.6,8.05v4.65q3.1-2.75,4.5-2.75t4.475,2.775Q231.5-22,231.5-19.3v9.65a10.341,10.341,0,0,0,.6,3.95A6.353,6.353,0,0,0,234-3.25L228.5.6a9.731,9.731,0,0,1-3.6-8.1V-18.6a2.638,2.638,0,0,0-.9-1.775,2.489,2.489,0,0,0-1.675-.925q-.775,0-2.875,2.1Zm35.88-5.42v.72h-4.84a4.924,4.924,0,0,0,.3,1.9,1.508,1.508,0,0,0,.36.49.778.778,0,0,0,.54.25q.28,0,.7-.48a3.516,3.516,0,0,0,.66-1.16l2.06,1.46A4.918,4.918,0,0,1,253.46-.5a3.568,3.568,0,0,1-1.79.74A3.763,3.763,0,0,1,249.7-.82a6.088,6.088,0,0,1-1.57-1.65,8.921,8.921,0,0,1-.28-2.92,8.921,8.921,0,0,1,.28-2.92,6.088,6.088,0,0,1,1.57-1.65,3.816,3.816,0,0,1,1.89-1.06,3.816,3.816,0,0,1,1.89,1.06,6.089,6.089,0,0,1,1.57,1.65A8.777,8.777,0,0,1,255.33-5.42Zm-2.77-2.51a1.94,1.94,0,0,0-.46-.53.931.931,0,0,0-.58-.26q-.27,0-.61.53a3.482,3.482,0,0,0-.42,1.59h2.28A3.958,3.958,0,0,0,252.56-7.93Zm11.31,4.69q0,.62-1.54,2.05T260.04.24a3.6,3.6,0,0,1-1.86-.74,4.918,4.918,0,0,1-1.65-1.74l2.06-1.42q1,1.4,1.46,1.4a1.606,1.606,0,0,0,.84-.34q.5-.34.5-.64,0-.08-.48-.35t-1.17-.68a15.38,15.38,0,0,1-1.37-.92,4.836,4.836,0,0,1-1.16-1.25,2.731,2.731,0,0,1-.48-1.5q0-.76,1.36-1.92a3.912,3.912,0,0,1,2.09-1.16,3.591,3.591,0,0,1,1.84.74,4.918,4.918,0,0,1,1.65,1.74l-2.06,1.42q-1-1.4-1.46-1.4a1.052,1.052,0,0,0-.59.27q-.35.27-.35.49t.73.68q.73.46,1.6.95a6.563,6.563,0,0,1,1.6,1.28A2.379,2.379,0,0,1,263.87-3.24Zm4.34-5.44v4.42a2.65,2.65,0,0,0,.64,1.72,4.365,4.365,0,0,0,1.76,1.24L268.41.24a5.733,5.733,0,0,1-2.02-1.55,3.231,3.231,0,0,1-.82-2.09V-8.68h-1v-1.5l1-.24a5.515,5.515,0,0,0-.24-1.55,2.909,2.909,0,0,0-.76-1.11l2.2-1.54a3.893,3.893,0,0,1,1.44,3.24v.6h2.24v2.1ZM274-2.9q.21,0,.99.66t.78.89q0,.23-.78.91t-1,.68q-.22,0-1-.68t-.78-.91q0-.23.79-.89A2.751,2.751,0,0,1,274-2.9Zm12.51-10.62a3.618,3.618,0,0,1,1.93,1.13,9.9,9.9,0,0,1,1.75,1.89,3.75,3.75,0,0,1,.22,1.63,3.563,3.563,0,0,1-.26,1.68,9.474,9.474,0,0,1-2.2,1.62,10.58,10.58,0,0,0-2.42,1.83,1.486,1.486,0,0,0-.16.82v.72h4.96V0h-7.72V-2.72a4.084,4.084,0,0,1,.28-1.74,4.643,4.643,0,0,1,1.22-1.33,23.483,23.483,0,0,1,2.06-1.5q1.12-.73,1.34-.91a.818.818,0,0,0,.22-.66,2.931,2.931,0,0,0-.13-.89,2.15,2.15,0,0,0-.49-.8.974.974,0,0,0-.65-.39q-.29,0-.93.75a3.78,3.78,0,0,0-.84,1.67L282.53-9.8a4.949,4.949,0,0,1,1.59-2.5A3.72,3.72,0,0,1,286.51-13.52Zm11.3,12.6A3.857,3.857,0,0,1,295.79.24a3.857,3.857,0,0,1-2.02-1.16,6.441,6.441,0,0,1-1.66-1.88,8.4,8.4,0,0,1-.22-2.62V-7.86a8.433,8.433,0,0,1,.27-2.72,6.375,6.375,0,0,1,1.61-1.78,3.857,3.857,0,0,1,2.02-1.16,3.777,3.777,0,0,1,2,1.16,7.3,7.3,0,0,1,1.68,1.88,8.646,8.646,0,0,1,.22,2.62v2.44a8.433,8.433,0,0,1-.27,2.72A6.375,6.375,0,0,1,297.81-.92ZM295.2-2.66a1,1,0,0,0,.59.3,1,1,0,0,0,.59-.3,2.181,2.181,0,0,0,.49-.55,8.482,8.482,0,0,0,.14-2.21V-7.86a10.939,10.939,0,0,0-.11-2.06,1.361,1.361,0,0,0-.48-.7,1.085,1.085,0,0,0-.62-.3,1.085,1.085,0,0,0-.62.3,1.533,1.533,0,0,0-.49.61,9.929,9.929,0,0,0-.12,2.15v2.44a8.492,8.492,0,0,0,.14,2.2A2.093,2.093,0,0,0,295.2-2.66Zm9.87-10.86A3.618,3.618,0,0,1,307-12.39a9.9,9.9,0,0,1,1.75,1.89,3.75,3.75,0,0,1,.22,1.63,3.563,3.563,0,0,1-.26,1.68,9.474,9.474,0,0,1-2.2,1.62,10.58,10.58,0,0,0-2.42,1.83,1.486,1.486,0,0,0-.16.82v.72h4.96V0h-7.72V-2.72a4.084,4.084,0,0,1,.28-1.74,4.643,4.643,0,0,1,1.22-1.33,23.483,23.483,0,0,1,2.06-1.5q1.12-.73,1.34-.91a.818.818,0,0,0,.22-.66,2.931,2.931,0,0,0-.13-.89,2.15,2.15,0,0,0-.49-.8.974.974,0,0,0-.65-.39q-.29,0-.93.75a3.78,3.78,0,0,0-.84,1.67L301.09-9.8a4.949,4.949,0,0,1,1.59-2.5A3.72,3.72,0,0,1,305.07-13.52Zm6.4,11.32h2.7v-8.62a8,8,0,0,0-1.64,2.08l-2.08-1.2a11.281,11.281,0,0,1,1.94-2.3q1.34-1.28,1.63-1.28a4.625,4.625,0,0,1,1.45.69,4.408,4.408,0,0,1,1.26.91V-2.2h1.86V0h-7.12Z" transform="translate(-2.5 38.746)" fill="#978027" stroke="rgba(236,47,47,0.38)" stroke-width="2"/>
</svg>
